<mxfile host="app.diagrams.net" modified="2023-07-21T05:00:05.795Z" agent="Mozilla/5.0 (Windows NT 10.0; Win64; x64) AppleWebKit/537.36 (KHTML, like Gecko) Chrome/115.0.0.0 Safari/537.36" etag="8GGX9g7FdkEh6d7t7GfV" version="21.6.3" type="google">
  <diagram name="Page-1" id="ERnuuHJcEvmfArZbGH8-">
    <mxGraphModel grid="1" page="1" gridSize="10" guides="1" tooltips="1" connect="1" arrows="1" fold="1" pageScale="1" pageWidth="850" pageHeight="1100" math="0" shadow="0">
      <root>
        <mxCell id="0" />
        <mxCell id="1" parent="0" />
        <mxCell id="k11YvzLBfCjrpI6kQXIe-1" value="" style="rounded=1;whiteSpace=wrap;html=1;" vertex="1" parent="1">
          <mxGeometry x="290" y="50" width="300" height="660" as="geometry" />
        </mxCell>
        <mxCell id="k11YvzLBfCjrpI6kQXIe-2" value="&lt;b&gt;&lt;font style=&quot;font-size: 10px;&quot;&gt;B&lt;font style=&quot;&quot;&gt;anking&lt;/font&gt;&lt;/font&gt; &lt;font style=&quot;font-size: 10px;&quot;&gt;System&lt;br&gt;&amp;lt;&amp;lt;Current&amp;nbsp; Account&lt;br&gt;&lt;/font&gt;&lt;/b&gt;" style="text;html=1;strokeColor=none;fillColor=none;align=center;verticalAlign=middle;whiteSpace=wrap;rounded=0;" vertex="1" parent="1">
          <mxGeometry x="386.25" y="60" width="97.5" height="30" as="geometry" />
        </mxCell>
        <mxCell id="k11YvzLBfCjrpI6kQXIe-3" value="Customer" style="shape=umlActor;verticalLabelPosition=bottom;verticalAlign=top;html=1;outlineConnect=0;" vertex="1" parent="1">
          <mxGeometry x="80" y="250" width="30" height="60" as="geometry" />
        </mxCell>
        <mxCell id="k11YvzLBfCjrpI6kQXIe-4" value="&lt;font style=&quot;font-size: 14px;&quot;&gt;Banksystem&lt;/font&gt;" style="shape=umlActor;verticalLabelPosition=bottom;verticalAlign=top;html=1;outlineConnect=0;" vertex="1" parent="1">
          <mxGeometry x="800" y="280" width="30" height="60" as="geometry" />
        </mxCell>
        <mxCell id="k11YvzLBfCjrpI6kQXIe-5" value="create Current Account" style="ellipse;whiteSpace=wrap;html=1;" vertex="1" parent="1">
          <mxGeometry x="375" y="100" width="130" height="70" as="geometry" />
        </mxCell>
        <mxCell id="k11YvzLBfCjrpI6kQXIe-6" value="Deposit Money" style="ellipse;whiteSpace=wrap;html=1;" vertex="1" parent="1">
          <mxGeometry x="370" y="190" width="140" height="70" as="geometry" />
        </mxCell>
        <mxCell id="k11YvzLBfCjrpI6kQXIe-7" value="withdraw Money" style="ellipse;whiteSpace=wrap;html=1;" vertex="1" parent="1">
          <mxGeometry x="370" y="290" width="140" height="70" as="geometry" />
        </mxCell>
        <mxCell id="k11YvzLBfCjrpI6kQXIe-8" value="Check Balance" style="ellipse;whiteSpace=wrap;html=1;" vertex="1" parent="1">
          <mxGeometry x="370" y="390" width="140" height="70" as="geometry" />
        </mxCell>
        <mxCell id="k11YvzLBfCjrpI6kQXIe-9" value="Transfer Money" style="ellipse;whiteSpace=wrap;html=1;" vertex="1" parent="1">
          <mxGeometry x="370" y="500" width="140" height="70" as="geometry" />
        </mxCell>
        <mxCell id="k11YvzLBfCjrpI6kQXIe-10" value="Transaction History" style="ellipse;whiteSpace=wrap;html=1;" vertex="1" parent="1">
          <mxGeometry x="370" y="610" width="140" height="70" as="geometry" />
        </mxCell>
        <mxCell id="k11YvzLBfCjrpI6kQXIe-11" value="" style="endArrow=classicThin;html=1;rounded=0;exitX=1;exitY=0.3333333333333333;exitDx=0;exitDy=0;exitPerimeter=0;entryX=0;entryY=0.5;entryDx=0;entryDy=0;endFill=1;" edge="1" parent="1" source="k11YvzLBfCjrpI6kQXIe-3" target="k11YvzLBfCjrpI6kQXIe-5">
          <mxGeometry width="50" height="50" relative="1" as="geometry">
            <mxPoint x="340" y="330" as="sourcePoint" />
            <mxPoint x="390" y="280" as="targetPoint" />
            <Array as="points" />
          </mxGeometry>
        </mxCell>
        <mxCell id="k11YvzLBfCjrpI6kQXIe-12" value="" style="endArrow=classic;html=1;rounded=0;entryX=0;entryY=0.5;entryDx=0;entryDy=0;" edge="1" parent="1" target="k11YvzLBfCjrpI6kQXIe-6">
          <mxGeometry width="50" height="50" relative="1" as="geometry">
            <mxPoint x="110" y="270" as="sourcePoint" />
            <mxPoint x="385" y="145" as="targetPoint" />
            <Array as="points" />
          </mxGeometry>
        </mxCell>
        <mxCell id="k11YvzLBfCjrpI6kQXIe-13" value="" style="endArrow=classic;html=1;rounded=0;entryX=0;entryY=0.5;entryDx=0;entryDy=0;exitX=1;exitY=0.3333333333333333;exitDx=0;exitDy=0;exitPerimeter=0;" edge="1" parent="1" source="k11YvzLBfCjrpI6kQXIe-3" target="k11YvzLBfCjrpI6kQXIe-7">
          <mxGeometry width="50" height="50" relative="1" as="geometry">
            <mxPoint x="120" y="280" as="sourcePoint" />
            <mxPoint x="380" y="235" as="targetPoint" />
            <Array as="points" />
          </mxGeometry>
        </mxCell>
        <mxCell id="k11YvzLBfCjrpI6kQXIe-14" value="" style="endArrow=classic;html=1;rounded=0;entryX=0;entryY=0.5;entryDx=0;entryDy=0;" edge="1" parent="1" target="k11YvzLBfCjrpI6kQXIe-8">
          <mxGeometry width="50" height="50" relative="1" as="geometry">
            <mxPoint x="110" y="270" as="sourcePoint" />
            <mxPoint x="380" y="335" as="targetPoint" />
            <Array as="points" />
          </mxGeometry>
        </mxCell>
        <mxCell id="k11YvzLBfCjrpI6kQXIe-15" value="" style="endArrow=classic;html=1;rounded=0;entryX=0.024;entryY=0.376;entryDx=0;entryDy=0;entryPerimeter=0;" edge="1" parent="1" target="k11YvzLBfCjrpI6kQXIe-9">
          <mxGeometry width="50" height="50" relative="1" as="geometry">
            <mxPoint x="110" y="270" as="sourcePoint" />
            <mxPoint x="380" y="435" as="targetPoint" />
            <Array as="points" />
          </mxGeometry>
        </mxCell>
        <mxCell id="k11YvzLBfCjrpI6kQXIe-16" value="" style="endArrow=classic;html=1;rounded=0;entryX=0;entryY=0.5;entryDx=0;entryDy=0;" edge="1" parent="1" target="k11YvzLBfCjrpI6kQXIe-10">
          <mxGeometry width="50" height="50" relative="1" as="geometry">
            <mxPoint x="120" y="280" as="sourcePoint" />
            <mxPoint x="383" y="536" as="targetPoint" />
            <Array as="points" />
          </mxGeometry>
        </mxCell>
        <mxCell id="k11YvzLBfCjrpI6kQXIe-17" value="" style="endArrow=classic;html=1;rounded=0;exitX=0;exitY=0.3333333333333333;exitDx=0;exitDy=0;exitPerimeter=0;entryX=0.733;entryY=0.273;entryDx=0;entryDy=0;entryPerimeter=0;" edge="1" parent="1" source="k11YvzLBfCjrpI6kQXIe-4" target="k11YvzLBfCjrpI6kQXIe-1">
          <mxGeometry width="50" height="50" relative="1" as="geometry">
            <mxPoint x="300" y="490" as="sourcePoint" />
            <mxPoint x="720" y="200" as="targetPoint" />
          </mxGeometry>
        </mxCell>
        <mxCell id="k11YvzLBfCjrpI6kQXIe-18" value="Update Balance" style="edgeLabel;html=1;align=center;verticalAlign=middle;resizable=0;points=[];" connectable="0" vertex="1" parent="k11YvzLBfCjrpI6kQXIe-17">
          <mxGeometry x="-0.0208" y="2" relative="1" as="geometry">
            <mxPoint as="offset" />
          </mxGeometry>
        </mxCell>
        <mxCell id="k11YvzLBfCjrpI6kQXIe-19" value="" style="endArrow=classic;html=1;rounded=0;exitX=0;exitY=0.3333333333333333;exitDx=0;exitDy=0;exitPerimeter=0;" edge="1" parent="1" source="k11YvzLBfCjrpI6kQXIe-4" target="k11YvzLBfCjrpI6kQXIe-7">
          <mxGeometry width="50" height="50" relative="1" as="geometry">
            <mxPoint x="810" y="310" as="sourcePoint" />
            <mxPoint x="520" y="240" as="targetPoint" />
          </mxGeometry>
        </mxCell>
        <mxCell id="k11YvzLBfCjrpI6kQXIe-20" value="Update Balance" style="edgeLabel;html=1;align=center;verticalAlign=middle;resizable=0;points=[];" connectable="0" vertex="1" parent="k11YvzLBfCjrpI6kQXIe-19">
          <mxGeometry x="0.1017" y="2" relative="1" as="geometry">
            <mxPoint x="-1" as="offset" />
          </mxGeometry>
        </mxCell>
        <mxCell id="k11YvzLBfCjrpI6kQXIe-21" value="" style="endArrow=classic;html=1;rounded=0;entryX=1.009;entryY=0.361;entryDx=0;entryDy=0;entryPerimeter=0;" edge="1" parent="1" target="k11YvzLBfCjrpI6kQXIe-9">
          <mxGeometry width="50" height="50" relative="1" as="geometry">
            <mxPoint x="800" y="300" as="sourcePoint" />
            <mxPoint x="440" y="350" as="targetPoint" />
          </mxGeometry>
        </mxCell>
        <mxCell id="k11YvzLBfCjrpI6kQXIe-22" value="Update Balance" style="edgeLabel;html=1;align=center;verticalAlign=middle;resizable=0;points=[];" connectable="0" vertex="1" parent="k11YvzLBfCjrpI6kQXIe-21">
          <mxGeometry x="-0.0046" y="4" relative="1" as="geometry">
            <mxPoint as="offset" />
          </mxGeometry>
        </mxCell>
        <mxCell id="k11YvzLBfCjrpI6kQXIe-23" value="" style="endArrow=classic;html=1;rounded=0;entryX=0.99;entryY=0.629;entryDx=0;entryDy=0;entryPerimeter=0;" edge="1" parent="1" target="k11YvzLBfCjrpI6kQXIe-5">
          <mxGeometry width="50" height="50" relative="1" as="geometry">
            <mxPoint x="790" y="300" as="sourcePoint" />
            <mxPoint x="520" y="240" as="targetPoint" />
          </mxGeometry>
        </mxCell>
        <mxCell id="k11YvzLBfCjrpI6kQXIe-24" value="Approve or reject" style="edgeLabel;html=1;align=center;verticalAlign=middle;resizable=0;points=[];" connectable="0" vertex="1" parent="k11YvzLBfCjrpI6kQXIe-23">
          <mxGeometry x="-0.0208" y="2" relative="1" as="geometry">
            <mxPoint as="offset" />
          </mxGeometry>
        </mxCell>
      </root>
    </mxGraphModel>
  </diagram>
</mxfile>
